/* XPM */
static char *result[] = {
/* columns rows colors chars-per-pixel */
"68 64 195 2 ",
"   c #010000",
".  c #0D0000",
"X  c #000F0F",
"o  c #130200",
"O  c #150802",
"+  c #1B0D03",
"@  c #191206",
"#  c #1D1509",
"$  c #1A1B13",
"%  c #200B00",
"&  c #241303",
"*  c #2A1605",
"=  c #2C1A06",
"-  c #24160A",
";  c #281509",
":  c #251A0C",
">  c #2C1C0A",
",  c #321D06",
"<  c #321E0A",
"1  c #261F10",
"2  c #2E1E11",
"3  c #311F13",
"4  c #2D200F",
"5  c #342106",
"6  c #35220C",
"7  c #3A250D",
"8  c #3D280E",
"9  c #2E2211",
"0  c #352412",
"q  c #352717",
"w  c #392612",
"e  c #3D2A14",
"r  c #34281A",
"t  c #3D2B19",
"y  c #3E301D",
"u  c #3B2E22",
"i  c #3F3024",
"p  c #44290D",
"a  c #422D14",
"s  c #422E19",
"d  c #453116",
"f  c #4A3216",
"g  c #45321B",
"h  c #4B351C",
"j  c #4D391E",
"k  c #563615",
"l  c #533A1E",
"z  c #5A3E1E",
"x  c #683E17",
"c  c #412D20",
"v  c #433221",
"b  c #4B3621",
"n  c #4D3922",
"m  c #533D23",
"M  c #593F23",
"N  c #5B401F",
"B  c #684419",
"V  c #774D1C",
"C  c #7E561C",
"Z  c #564126",
"A  c #5B4225",
"S  c #554129",
"D  c #5C452A",
"F  c #5E482C",
"G  c #5F4631",
"H  c #624625",
"J  c #644925",
"K  c #6C4B27",
"L  c #61472B",
"P  c #634A2C",
"I  c #6A4E2D",
"U  c #6C512E",
"Y  c #72532E",
"T  c #79562B",
"R  c #604730",
"E  c #654C31",
"W  c #694E32",
"Q  c #645034",
"!  c #6C5233",
"~  c #6D5539",
"^  c #725534",
"/  c #735936",
"(  c #7B5A35",
")  c #71563A",
"_  c #755A3B",
"`  c #7A5D3C",
"'  c #7C613E",
"]  c #6F5C44",
"[  c #765D42",
"{  c #7A5E41",
"}  c #7D6242",
"|  c #7B6349",
" . c #83531B",
".. c #925B1D",
"X. c #865C28",
"o. c #855F37",
"O. c #805E3C",
"+. c #89632E",
"@. c #97662A",
"#. c #826137",
"$. c #8A6333",
"%. c #82623D",
"&. c #89663F",
"*. c #8B693D",
"=. c #966936",
"-. c #966C3B",
";. c #9A6D3D",
":. c #9D713E",
">. c #AC712A",
",. c #AC7429",
"<. c #A57639",
"1. c #805F42",
"2. c #836543",
"3. c #886642",
"4. c #856946",
"5. c #8B6A45",
"6. c #826649",
"7. c #866A4A",
"8. c #8B6D4A",
"9. c #916E46",
"0. c #916F4B",
"q. c #8E714C",
"w. c #957144",
"e. c #9B7242",
"r. c #93724C",
"t. c #9A764D",
"y. c #97784D",
"u. c #9C794E",
"i. c #896E51",
"p. c #8F7352",
"a. c #957552",
"s. c #997654",
"d. c #967953",
"f. c #9B7A54",
"g. c #957759",
"h. c #9C7C5A",
"j. c #A07443",
"k. c #A17B4C",
"l. c #A17D55",
"z. c #A17F5B",
"x. c #BF822F",
"c. c #C38937",
"v. c #9E8158",
"b. c #A48056",
"n. c #AA8354",
"m. c #A4825B",
"M. c #AA855D",
"N. c #AC8A5E",
"B. c #B18759",
"V. c #B48C5E",
"C. c #9E8261",
"Z. c #A58562",
"A. c #AA8760",
"S. c #A78867",
"D. c #AC8A62",
"F. c #AB8B6A",
"G. c #B28D63",
"H. c #B28E69",
"J. c #AE9067",
"K. c #B49164",
"L. c #B99163",
"P. c #B5926B",
"I. c #BA966B",
"U. c #BC9A6C",
"Y. c #B49472",
"T. c #B99674",
"R. c #BC9B75",
"E. c #BD9C79",
"W. c #C0996B",
"Q. c #C19E74",
"!. c #C19E79",
"~. c #C5A274",
"^. c #C9A475",
"/. c #C5A27B",
"(. c #C9A67C",
"). c #CCA97D",
"_. c #C9A680",
"`. c #CDAB83",
"'. c #D1AE85",
"]. c #D2AF88",
"[. c #D2B186",
"{. c #D6B385",
"}. c #D4B287",
"|. c #D7B486",
" X c #D8B786",
".X c #D3B088",
"XX c #D6B489",
"oX c #D9B788",
"OX c #D9B78C",
"+X c #DAB98A",
"@X c #DCBA8B",
"#X c #DAB88D",
"$X c #DCBB8C",
"%X c #DDBC8C",
"&X c #E0BE8E",
/* pixels */
"+X+X+X+X+X@X@X$X%X%X$X+X%X+X%X%X%X%X&X{.N.).&X).).{.|.%X%X%X%X%X&X%X@X%X$X$X%X%X@X@X$X+X+X#X#X#XOXOXOXoXoXoXoXXXXXXXXXXXXXXXXXXXXXXXXX.X",
"+X+X+X+X+X+X$X@X$X%X%X$X@X%X@X%X%X X).I.G.`.^.^.^.Q.W.^./.~.^.{. X{.%X%X%X$X$X$X@X@X+X+X+X#X#XOXoXoXOXoXXXXXXXXXXXXXXXXXXXXXXXXX.X.X.X.X",
"oX+X+X+X+X@X$X$X$X$X%X%X+X%X@X%X%X|.I.r.%.d.m.G.G.f.u.n.n.n.N.K.N.K./.'.|.@X%X@X$X+X+X+X#X#XOXoXXXXXXXXXXXXXXXXXXXXXXX.XXX.X.X.X.X.X.X.X",
"oX+X+X+X+X@X$X$X$X@X@X%X%X@X%X+XoX{.I.8.^ ` y.w.5.%.q.t.t.t.r.r.y.b.y.D.I.).{. X+X+X+X+XoXXXoXoXXXXXXXXXXXXXXXXX{..XXXXXXX.X.X.X.X.X].].",
"#X+X+X+X+X+X@X$X$X$X$X$X%X%X%X+X).I.M.7.! _ 7.5.&.` ' ' ` %.r.l.h.b.D.G.H.P.I.~.).'.|.|.{.|.oXXXXXXXXXXXXXXX{.{.{.[.XX.X].'..X.X].].].].",
"oX+X+X+X+X@X+X+X$X%X%X@X$X&X@X$X[.P.r.( U I / %.%.' / / 4.r.s.d.5.t.M.P.P.D.G.D.K.I.P.U.^.`.'.[.XXXXXX{.XX{.{.{.XX.X.X.X'.'.'.'.].].'.'.",
"oX+X+X+X+X+X@X+X+X%X%X%X$X%X$XXX/.D.r./ I I I _ / ' ` 2.8.8.2.3.w.b.l.M.M.l.h.d.D.N.N.D.G.G.K.R._.'.[.[.[.[.{.{..X[.'.].'.'.'.'.'.'.'.`.",
"oXoX+X+X+X+X+X$X@X+X@X%X%X+XXX`./.l.5.` U I U I ! / ` ` 2.5.r.r.r.f.r.l.7.d.d.h.a.d.m.M.D.D.M.M.A.P.Q.`.{.{.[.'.'.'.].'.'.'.'.'.'.'.`.`.",
"oXoXoX+X+X+X+X+X%X%X+X%X%X%XoX).U.N.5.' ` I I U ! / ! ' r.r.8.2.2.2.2.r.3.5.4.5.5.8.h.m.f.r.0.f.f.z.m.Y.(.`.'.'.'.'.'.'.'.'.'.'.`.`.`.`.",
"oXoXoX+X+X+X+X@X@X%X%X+X@X@XoX).K.b.r.' _ ^ U / ' ` 4.8.2.2.2.} ` 2.2.2.2._ / / 4.4.' ^ I P E _ ( 2.r.a.m.Q._.'.'.'.'.'.'.`.`.`.`.`.`.`.",
"oXoXoXoX+X+X+X@X%X%X%X%X|.{.).I.m.7.7.` ^ / ^ ' ' 4.8.%.` ` ^ ` 8.%.( ' _ I ' ^ ^ ~ P D I D m F ! _ 2.7.r.M.R.`.'.'.'.'.`.`.`.`.`.`.`.`.",
"XXoXoXoX+X+X+X+X@X%X%X%XoX^.I.b.7.' / ` ! U 5.r.7.7.2.%.! ^ _ ' 2.L U ! ~ ! ! ! ! P L P W P Z D ! ` _ } 4.q.m.!.`.'.'.'.'.`.`.`.`.`.`.`.",
"XXOXoXoXoX+X+X+X+X%X@X%X+X^.N.r.2./ ! ` ! 2.m.d.2.7.%.^ ! / / ! I I I L J P I L P m j j m A S F ~ ` _ ! } r.d.Z.H.T./._._.`.`.`.`.`.`.`.",
"XXoXoXoXoX+X+X+X+X+X@X{.).I.r.2.` ` ! _ ^ 8.d.2.%.` U J _ ^ P P P ! P A P ! P A m m m g g g g h b n g e y R _ 7.a.a.z.I./.(.`.`.`.`._._.",
"XXXXoXoXoX+X+X+X+X|.'.Q.f.d.5.' 6.6.! ! ` 8.2.I ^ ! P U ! I J D L A m A A P P D j m m j b g g 0 w g h s 6 = 6 b F A j ! g.P./.'.`._._._.",
"XXXXXXoXoXoX+X|.{.).D.s.r.2.2.8.8.8._ 2.7.8./ A ^ ! A H I ! I D m Z A D F A A A m d d g w g t t b j g g g q 6 0 t b s 6 a / } Z.(.`._._.",
"XXXXXXoXoXoXoXoX).K.0.` 8.q.2.7.7.2._ ` 2.4.U ! ~ I m P A I J m m P P I P ! P m l h h g w j h g n m n n w t q q g h n h w h ! 6.S.!._._.",
"XXXXXXXXXXXXoX|.I.r.' 5.r.r.7.2.5.` ! U ' _ I P P m m H J L m l P P m A m A P j h g j j t g g g n m j j q q q 0 t b n n m 8./._.(./.(.(.",
"{.XXXXXXXXXXXX{.G.3.7.f.r.8.q.2.2./ ! J / I m P D g m A H A h P L A Z h t j m m d h n j g g e g s s j m g 6 0 t s g n 8 6.!._.(.(.(.(.(.",
"XXXXXXXXXXXXoX{.m.7.r.r.7.8.8.2.^ I P I ! D j P j a m P A l m E D A A g t g m Z g j g g j a s t w t g D P A m g b h t R F.(.(.(.(.(.(.(.",
"XXXXXXXXXXXX|.{.m.^ I P A I Y _ ^ I m D P m m m g s m J m j D L A E g F m m A ! Z m n n n n t e s s g h D P A h s b g 7.D.!.(.(.(.(.(./.",
"XXXX|.|.XXXX|.{.M.^ z j > k V 5 m ! D A A m l j s g D D g m D D m m v A P E P E P A m n m g t t b g w v g m A m h b H r.G.E.(.(.(./././.",
"{.XX|.|.XXXX|.{.M.2._ m s X.T $ $ n P m l m h g t h D A j A A m S g n S P ` ~ E R A F m b s h s 0 t h s g m Z h s g A f.R././.(././././.",
"{.{.XXXXXXXX|.'.b.5.5.W M @.B $ r   m A l n g g t j D A l m Z b b b m D E W A R I I m b b D m s t g m m h m m t q q j g.!./././././././.",
"{.{.XXXXXXXX|.{.A.5.y.2./ @.k X 4   f K m j j h a m m l m m n b b g g F m g j n W P D n n A j e m g h g s m F m q 3 P d.Q./././././././.",
"{.{.XXXXXXXXXX{.D.%.r.r.` <. .    # B T I m j h g m m j m h h s s g h S n m n n S A I P m Z b a g w t h g g h g - q ! r.T.(././././././.",
"XX{.{.XXXXXXXX[.H.%.q.m.2.+.c. .h X...T ( A m g a A m h s a s t 0 g g n D D m A A E R m g n n s g g t h g q g q   6 ! f.I./././././././.",
"`.XX{.XXXXXXXXXXI.2.4.s.M.) X.c.x.,. ./ ` I m g g A m g t t t 0 0 e w g n A P A P ~ A m m n n s a h s t t t t t g n J r.P./././././././.",
"'.`.XXXXXXXXXX|.U.9.7.8.f.G.| P $.K h ' 2.^ A g j Z m j g g g s t - + 6 # t m D E E E P F t g m D m n g b D F j A { 8.d.H./././././././.",
"{.'.'.XXXX{.XX{.U.w.5.5.r.m.P.A.d.2.U 2.8.2.` P P D A A j D D m ;   p d : # 1 g M A P P m g g n D Z m ! ! E ! _ _ 2.h.z.H.E./.!.!.!.!.!.",
"[.XX[.'.XX{.[.{.Q.r.r.r.d.d.z.m.f.r.! ' 7.4.} W ! / / ! I ~ ! h O O k 9 9 @ O @ f f m D Z h h h Z A ~ ` _ _ ! ~ 4.h.a.8.m.Y.E.E.!.!.E.!.",
"[.[.{.[.'.XXXX[.Q.f.r.r.8.r.4.8.5.4.P _ ! / W m E } 6.} ` _ D 7 +   x 6 @ & + # B k + s g n m m P ! ^ ` ' } 2.` ` a.a.2.d.F.Y.E.E.!.E.E.",
"[.[.[.XX[.`.{.XX~.r.r.r.r.4._ { 8.4._ I } d.} W _ _ ` } } D q < &   z x       p V f : t g g S P P P J 2.2.2.2._ ` 2.a.a.h.h.F.T.E.E.E.E.",
"{.{.{.[.{.'.`.{.Q.r.9.8.7.7.q.r.r.' I } D.A.7.} 8._ E ! R g h j g * ; >.V k V X.B & m m Z Z m m m Z m / ` } 2.! ` 2.5.d.h.s.z.P.R.E.E.E.",
"'.'.[.{.[.{.[.`.).M.5.r.r.h.f.b.h.' ` D.K.v.7.d.d.! D D w 0 A _ 6.2.b C ,.,.,.V s P ~ D Z A m j m b m A W W } ! ! ` 8.a.8.0.d.z.P.R.E.E.",
"'.'.'.'.'.[.[.'.'.R.t.f.f.m.M.A.m.r.M.I.d.6.} v.q.A h m g g S _ a.b.d.E ~ ^ ! ~ _ ` / E P m D S m m m m P m ! ~ ! ! 7.d.2.{ 7.a.F.Y.R.E.",
"'.'.'.'.'.[.[.'.'.R.t.f.f.m.M.A.m.r.M.P.d.6.} v.q.A h m g g S _ a.b.d.E ~ ^ ! ~ _ ` / E P m D S m m m m P m ! ~ W ! 7.d.2.} 7.a.F.Y.R.E.",
"{.[.'.'.`.`.).).).Q.l.f.s.D.P.A.a.Z.J.h.7.7.q.d.' D m n Z P F _ 6.5.d.r.8.6.2.4._ ! D P F Z m D A m m j m m m ! _ ^ 2.r._ / 2.5.h.F.Y.Y.",
"~.'.[.[.'.'.'.'.`.(.A.t.d.D.A.m.s.8.Q F ! _ q.p.} m n m A E ! ! ! } 2.} _ _ ^ ! ! ! E P D A m g j m j e e d J I P P _ 2.L E ` 2.g.F.Y.Y.",
"<.n.W.).[.[.[.'.'.Q.l.b.z.s.M.m.G.r.% & q b n | | A ~ F E / ^ D m / ` } ' _ / ^ _ E ! E m j Z a g n e e 7 h P I P M ~ 2.d n ~ } a.S.Y.Y.",
":.:.:.k.K.~.^.`.).G.O.2.h.m.M.A.G.M.D   : : + y b Q ` ! ` 4.} _ P P _ } 2.} _ _ / R A A D A m h m s 7 t a A Z L P A 2.2.g n R ) 7.m.F.Y.",
";.:.j.-.=.<.n.I.I.f.0.7.%.&.0.h.f.r.` o : @     0 ! 4.2.5.8.} _ / ~ ~ 2.} } _ ! ! ! E P A j g g j a e < e g m D H U 2.P t m F ! 7.S.Y.Y.",
";.-.;.;.e.j.;.e.k.k.r.0.r.r.f.h.r.r.f.m   + n } a.h.h.d.d.d._ ! ` _ ! ' ` / / _ ! E A j l j j g e a e e n L l m M U I g v b D ) } h.F.Y.",
";.;.;.;.;.:.j.k.e.e.*.( %.2.0.0.r.r.d.W . [ d.a.d.h.f.d.q.7.} [ ! _ I _ _ E ~ _ ! F a g M M h g d e w a h A A M L I h e a h m R _ p.Z.F.",
"-.;.;.e.:.j.:.:.e.e.t.*.U I _ ` ' } / A b 8.m.d.r.d.d.d.a._ } L E ! ! E P A m m M A m b a a e e a g w w w j L D ! P a e e g m Z E 7.C.F.",
";.;.-.-.;.;.-.-.-.k.n.u.&.^ ! ! / ! F s g / a.f.d.d.2.7.q.d.7._ ! A P D A m A m m h t t < 6 e e h g 7 7 h M M A A h t t a g h m P } d.C.",
"-.-.-.;.;.-.;.:.k.B.k.w.t.( H J I Z t t h J 2.2.8.d.r.2.} ` [ 8.8.` P n g g n h 6 6 < w w 6 e e e d h h h h l A d t t e e a g m D { i.h.",
"-.-.;.;.;.;.;.e.V.V.t.*.9.*.Y A A f 7 a j b ! } } _ 4.8.5.` D A ~ _ ` w b g w < 6 0 w < = w w e g h l d a l A h w e w 7 e g m D P [ 7.g.",
"-.-.-.-.;.;.-.B.L.k.5.( ( *.#.J H J z e < > t E I H W P ! ` _ I m m L s = n h 0 ; ; 6 w 6 7 e w a a g g h A A g 7 7 w t a h j m E ` ' i.",
"-.:.:.:.-.=.j.W.B.w.*.( / %.%.Y H ^ Y h t 0 = t m P I D A m m D ! _ ! F s n g t 0 ; - > a t < < 6 7 a h m l j a w 6 6 e a h m D E ` ' } ",
"$.$.-.;.;.e.V.L.n.9.O.( ^ ^ ( ^ H I O.Y M j t 0 6 w g D P F F m j m P I a = r u > > & & * t w < 6 e h d g a e t t t t w t h Z P ! _ ` _ ",
"T X.$.$.-.V.I.V.l.5.%.( ^ U I I H N ( ( I I j w a , 7 g j A P E ! P h m n - o r i 9 > ; & = s 7 7 a a e e e 6 t s g s e s g m F ! { } _ ",
"] _ Y o.k.V.n.l.r.3.%./ ^ I N z l f k I ^ Y A g g h d a a f m m D ~ F * v S :   r i > 6 > = 6 t a h a e w t 7 6 w g s t s n F P E ` ` ! ",
"i.[ G ` b.V.n.t.5.%.( ^ I J l h h h f d M K N M g a a 7 6 8 a s h n ~ 0 o v E q . t i 6 w e e a a a w e w t t t w t t g h m P P W _ / ! ",
"|.F.8.r.L.L.n.f.r.5.( ^ Y J N f h h a a f a a a 7 7 7 < < 8 a a b w n t q . g ~ t o v s 7 a a a 7 w w w t g t a w < w g n m D I / _ ! I ",
"{.S.8.t.L.V.l.t.9.%.^ ^ U J z f f a a a f 8 7 5 7 7 7 < > 7 7 d g n * s c w o g ~ t & g e t e g t w 6 7 s h g t s t e g m D L ! ` { ! J ",
"m.5.*.r.K.n.t.w.*.O.( Y U J z h a a a a a e 8 7 8 8 6 < > = = a f g 7 n w g w & b ! t 6 g s g g t 7 w w t t t w e t e h D F E ` 7.' I I ",
"r.5.%.t.G.l.r.5.O.( ^ K J M l f a e a a a 7 8 8 a p 7 6 6 * ; > a a a n g g s w < g Q g 8 t a t 0 w < > < 6 < w e g h h S E ~ } 5.' J _ ",
"%.` ( w.V.k.r.5.%.^ Y U J A z f a a 8 8 8 8 8 < 7 a a e 6 * = > 6 a g s h w s q 6 < n E e 6 t w ; > = ; < w w e j n m m m P ! ` 2.2.^ I ",
"( ` ` 9.V.k.9.5.O.Y Y Y J A z f f a 7 8 8 8 7 * 7 a a a 6 * = 6 < < t w t 2 2 q > > & s n 6 e 6 > < < 6 6 6 t a j L m m D P P _ 2.` _ ! ",
"` ` ^ t.V.t.5.3.( ( ( I H z z l h a 8 8 7 6 , = 7 a a 8 7 6 < < < = < 6 0 > ; 2 > & ; & w s = * 6 7 7 e a a d m A P D m A E ! ! { ` _ ` ",
"` ( ( n.V.t.9.9.( U I H A P M l h f a 7 , 7 5 6 7 7 8 8 7 7 < 6 < = 6 6 * 2 & 9 0 > = > = t a = 6 e g h g g j m A P D D M A W _ ` 1._ / ",
"( ( t.L.G.n.t.5.( K U U I H A z h h a , 8 a 8 8 8 6 < 7 6 7 , < 6 6 6 6 = 6 = = 0 6 > = < > g t 7 w a h j h g g h m A D ! ! ! _ ` 2._ ! ",
"( t.V.V.L.n.t.5.^ Y Y I H A A z h l a 8 f f f 7 8 7 6 7 , e 6 = 6 6 6 0 < 6 > * > 6 0 w w e t h a a g h h g l A A A P E L ! _ { { _ ^ ! "
};
